# xmcd CD database file
#
# Track frame offsets:
#	150
#	16504
#	29841
#	39918
#	51705
#	61788
#	74594
#	87598
#	101442
#	112841
#	127457
#	139336
#	149344
#	161064
#	175339
#	187549
#	199097
#	212363
#	222937
#	231789
#
# Disc length: 3287 seconds
#
# Revision: 1
# Processed by: cddbd v1.4PL0 Copyright (c) Steve Scherf et al.
# Submitted via: CDex 1.51
#
DISCID=270cd514
DTITLE=Chantal Goya - Divers
DYEAR=1990
DGENRE=Enfants
TTITLE0=Adieu les jolis foulards
TTITLE1=Allons chanter avec Mickey
TTITLE2=Babar
TTITLE3=Bécassine
TTITLE4=Boubo Bouba
TTITLE5=Ce matin un lapin
TTITLE6=C'est Guignol
TTITLE7=David Croquette
TTITLE8=Felix le chat
TTITLE9=La petite fille aux allumettes
TTITLE10=L'alphabet
TTITLE11=Le coucou
TTITLE12=Les malheurs de Sophie
TTITLE13=Monsieur le chat botté
TTITLE14=Pandi panda
TTITLE15=Pierrot tout blanc
TTITLE16=Polichinelle
TTITLE17=Riri Fifi Loulou
TTITLE18=Tom Sawyer
TTITLE19=Voulez-vous danser grand-mère
EXTD=YEAR: 1990
EXTT0=
EXTT1=
EXTT2=
EXTT3=
EXTT4=
EXTT5=
EXTT6=
EXTT7=
EXTT8=
EXTT9=
EXTT10=
EXTT11=
EXTT12=
EXTT13=
EXTT14=
EXTT15=
EXTT16=
EXTT17=
EXTT18=
EXTT19=
PLAYORDER=
